<?xml version="1.0" encoding="UTF-8"?><svg xmlns="http://www.w3.org/2000/svg" xmlns:xlink="http://www.w3.org/1999/xlink" fill-opacity="1" color-rendering="auto" color-interpolation="auto" text-rendering="auto" stroke="black" stroke-linecap="square" width="330" stroke-miterlimit="10" shape-rendering="auto" stroke-opacity="1" fill="black" stroke-dasharray="none" font-weight="normal" stroke-width="1" height="590" font-family="'Dialog'" font-style="normal" stroke-linejoin="miter" font-size="12px" stroke-dashoffset="0" image-rendering="auto">
  <!--Generated by ySVG 2.5-->
  <defs id="genericDefs"/>
  <g>
    <defs id="defs1">
      <linearGradient x1="170" gradientUnits="userSpaceOnUse" x2="250" y1="404" y2="444" id="linearGradient1" spreadMethod="reflect">
        <stop stop-opacity="1" stop-color="rgb(232,238,247)" offset="0%"/>
        <stop stop-opacity="1" stop-color="rgb(183,201,227)" offset="100%"/>
      </linearGradient>
      <linearGradient x1="225" gradientUnits="userSpaceOnUse" x2="305" y1="273" y2="313" id="linearGradient2" spreadMethod="reflect">
        <stop stop-opacity="1" stop-color="rgb(232,238,247)" offset="0%"/>
        <stop stop-opacity="1" stop-color="rgb(183,201,227)" offset="100%"/>
      </linearGradient>
      <linearGradient x1="115" gradientUnits="userSpaceOnUse" x2="195" y1="273" y2="313" id="linearGradient3" spreadMethod="reflect">
        <stop stop-opacity="1" stop-color="rgb(232,238,247)" offset="0%"/>
        <stop stop-opacity="1" stop-color="rgb(183,201,227)" offset="100%"/>
      </linearGradient>
      <linearGradient x1="170" gradientUnits="userSpaceOnUse" x2="250" y1="344" y2="384" id="linearGradient4" spreadMethod="reflect">
        <stop stop-opacity="1" stop-color="rgb(232,238,247)" offset="0%"/>
        <stop stop-opacity="1" stop-color="rgb(183,201,227)" offset="100%"/>
      </linearGradient>
      <linearGradient x1="20" gradientUnits="userSpaceOnUse" x2="100" y1="-80" y2="-40" id="linearGradient5" spreadMethod="reflect">
        <stop stop-opacity="1" stop-color="rgb(232,238,247)" offset="0%"/>
        <stop stop-opacity="1" stop-color="rgb(183,201,227)" offset="100%"/>
      </linearGradient>
      <linearGradient x1="40" gradientUnits="userSpaceOnUse" x2="120" y1="-9" y2="31" id="linearGradient6" spreadMethod="reflect">
        <stop stop-opacity="1" stop-color="rgb(232,238,247)" offset="0%"/>
        <stop stop-opacity="1" stop-color="rgb(183,201,227)" offset="100%"/>
      </linearGradient>
      <linearGradient x1="60" gradientUnits="userSpaceOnUse" x2="140" y1="62" y2="102" id="linearGradient7" spreadMethod="reflect">
        <stop stop-opacity="1" stop-color="rgb(232,238,247)" offset="0%"/>
        <stop stop-opacity="1" stop-color="rgb(183,201,227)" offset="100%"/>
      </linearGradient>
      <linearGradient x1="115" gradientUnits="userSpaceOnUse" x2="195" y1="133" y2="173" id="linearGradient8" spreadMethod="reflect">
        <stop stop-opacity="1" stop-color="rgb(232,238,247)" offset="0%"/>
        <stop stop-opacity="1" stop-color="rgb(183,201,227)" offset="100%"/>
      </linearGradient>
      <linearGradient x1="150" gradientUnits="userSpaceOnUse" x2="230" y1="-9" y2="31" id="linearGradient9" spreadMethod="reflect">
        <stop stop-opacity="1" stop-color="rgb(232,238,247)" offset="0%"/>
        <stop stop-opacity="1" stop-color="rgb(183,201,227)" offset="100%"/>
      </linearGradient>
      <linearGradient x1="130" gradientUnits="userSpaceOnUse" x2="210" y1="-80" y2="-40" id="linearGradient10" spreadMethod="reflect">
        <stop stop-opacity="1" stop-color="rgb(232,238,247)" offset="0%"/>
        <stop stop-opacity="1" stop-color="rgb(183,201,227)" offset="100%"/>
      </linearGradient>
      <linearGradient x1="170" gradientUnits="userSpaceOnUse" x2="250" y1="62" y2="102" id="linearGradient11" spreadMethod="reflect">
        <stop stop-opacity="1" stop-color="rgb(232,238,247)" offset="0%"/>
        <stop stop-opacity="1" stop-color="rgb(183,201,227)" offset="100%"/>
      </linearGradient>
      <clipPath clipPathUnits="userSpaceOnUse" id="clipPath1">
        <path d="M0 0 L330 0 L330 590 L0 590 L0 0 Z"/>
      </clipPath>
      <clipPath clipPathUnits="userSpaceOnUse" id="clipPath2">
        <path d="M-10 -131 L320 -131 L320 459 L-10 459 L-10 -131 Z"/>
      </clipPath>
    </defs>
    <g fill="white" text-rendering="geometricPrecision" shape-rendering="geometricPrecision" transform="translate(10,131)" stroke="white">
      <rect x="-10" width="330" height="590" y="-131" clip-path="url(#clipPath2)" stroke="none"/>
    </g>
    <g fill="url(#linearGradient1)" text-rendering="geometricPrecision" shape-rendering="geometricPrecision" transform="matrix(1,0,0,1,10,131)" stroke="url(#linearGradient1)">
      <path d="M170 404 L250 404 L250 439 Q230 429 210 439 Q190 449 170 439 Z" stroke="none" clip-path="url(#clipPath2)"/>
    </g>
    <g text-rendering="geometricPrecision" stroke-miterlimit="1.45" shape-rendering="geometricPrecision" transform="matrix(1,0,0,1,10,131)" stroke-linecap="butt">
      <path fill="none" d="M170 404 L250 404 L250 439 Q230 429 210 439 Q190 449 170 439 Z" clip-path="url(#clipPath2)"/>
      <text x="183.3281" xml:space="preserve" y="428.1602" clip-path="url(#clipPath2)" font-family="sans-serif" stroke="none">report.xml</text>
    </g>
    <g fill="url(#linearGradient2)" text-rendering="geometricPrecision" shape-rendering="geometricPrecision" transform="matrix(1,0,0,1,10,131)" stroke="url(#linearGradient2)">
      <path d="M225 273 L305 273 L305 308 Q285 298 265 308 Q245 318 225 308 Z" stroke="none" clip-path="url(#clipPath2)"/>
    </g>
    <g text-rendering="geometricPrecision" stroke-miterlimit="1.45" shape-rendering="geometricPrecision" transform="matrix(1,0,0,1,10,131)" stroke-linecap="butt">
      <path fill="none" d="M225 273 L305 273 L305 308 Q285 298 265 308 Q245 318 225 308 Z" clip-path="url(#clipPath2)"/>
      <text x="227.6523" xml:space="preserve" y="297.1602" clip-path="url(#clipPath2)" font-family="sans-serif" stroke="none">document.xml</text>
    </g>
    <g fill="url(#linearGradient3)" text-rendering="geometricPrecision" shape-rendering="geometricPrecision" transform="matrix(1,0,0,1,10,131)" stroke="url(#linearGradient3)">
      <path d="M115 273 L195 273 L195 308 Q175 298 155 308 Q135 318 115 308 Z" stroke="none" clip-path="url(#clipPath2)"/>
    </g>
    <g text-rendering="geometricPrecision" stroke-miterlimit="1.45" shape-rendering="geometricPrecision" transform="matrix(1,0,0,1,10,131)" stroke-linecap="butt">
      <path fill="none" d="M115 273 L195 273 L195 308 Q175 298 155 308 Q135 318 115 308 Z" clip-path="url(#clipPath2)"/>
      <text x="124.9912" xml:space="preserve" y="297.1602" clip-path="url(#clipPath2)" font-family="sans-serif" stroke="none">schema.xsl</text>
    </g>
    <g fill="url(#linearGradient4)" text-rendering="geometricPrecision" shape-rendering="geometricPrecision" transform="matrix(1,0,0,1,10,131)" stroke="url(#linearGradient4)">
      <path d="M170 344 L250 344 L250 384 L170 384 Z" stroke="none" clip-path="url(#clipPath2)"/>
    </g>
    <g text-rendering="geometricPrecision" stroke-miterlimit="1.45" shape-rendering="geometricPrecision" transform="matrix(1,0,0,1,10,131)" stroke-linecap="butt">
      <path fill="none" d="M170 344 L250 344 L250 384 L170 384 Z" clip-path="url(#clipPath2)"/>
      <text x="194.9941" xml:space="preserve" y="368.1602" clip-path="url(#clipPath2)" font-family="sans-serif" stroke="none">XSLT</text>
    </g>
    <g text-rendering="geometricPrecision" stroke-miterlimit="1.45" shape-rendering="geometricPrecision" transform="matrix(1,0,0,1,10,131)" stroke-linecap="butt">
      <path fill="none" d="M155 308.0089 L155 328.5 L190 328.5 L190 335.9697" clip-path="url(#clipPath2)"/>
    </g>
    <g text-rendering="geometricPrecision" stroke-miterlimit="1.45" shape-rendering="geometricPrecision" transform="matrix(1,0,0,1,10,131)" stroke-linecap="butt">
      <path d="M190 343.9697 L195 331.9697 L190 334.9697 L185 331.9697 Z" stroke="none" clip-path="url(#clipPath2)"/>
      <path fill="none" d="M265 308.0089 L265 328.5 L230 328.5 L230 335.9697" clip-path="url(#clipPath2)"/>
      <path d="M230 343.9697 L235 331.9697 L230 334.9697 L225 331.9697 Z" clip-path="url(#clipPath2)" stroke="none"/>
      <path fill="none" d="M210 384 L210 395.9609" clip-path="url(#clipPath2)"/>
      <path d="M210 403.9609 L215 391.9609 L210 394.9609 L205 391.9609 Z" clip-path="url(#clipPath2)" stroke="none"/>
    </g>
    <g fill="rgb(245,245,245)" text-rendering="geometricPrecision" shape-rendering="geometricPrecision" transform="matrix(1,0,0,1,10,131)" stroke="rgb(245,245,245)">
      <rect x="5" y="-115.7578" clip-path="url(#clipPath2)" width="260" rx="4" ry="4" height="303.7578" stroke="none"/>
      <rect x="5" y="-115.7578" clip-path="url(#clipPath2)" fill="rgb(235,235,235)" width="260" height="20.7578" stroke="none"/>
    </g>
    <g font-size="15px" stroke-linecap="butt" transform="matrix(1,0,0,1,10,131)" text-rendering="geometricPrecision" font-family="sans-serif" shape-rendering="geometricPrecision" stroke-miterlimit="1.45">
      <text x="212.1479" xml:space="preserve" y="-100.1787" clip-path="url(#clipPath2)" stroke="none">SchXslt</text>
      <rect x="5" y="-115.7578" clip-path="url(#clipPath2)" fill="none" width="260" stroke-dasharray="6,2" rx="4" ry="4" height="303.7578"/>
    </g>
    <g fill="url(#linearGradient5)" text-rendering="geometricPrecision" shape-rendering="geometricPrecision" transform="matrix(1,0,0,1,10,131)" stroke="url(#linearGradient5)">
      <path d="M20 -80 L100 -80 L100 -45 Q80 -55 60 -45 Q40 -35 20 -45 Z" stroke="none" clip-path="url(#clipPath2)"/>
    </g>
    <g text-rendering="geometricPrecision" stroke-miterlimit="1.45" shape-rendering="geometricPrecision" transform="matrix(1,0,0,1,10,131)" stroke-linecap="butt">
      <path fill="none" d="M20 -80 L100 -80 L100 -45 Q80 -55 60 -45 Q40 -35 20 -45 Z" clip-path="url(#clipPath2)"/>
      <text x="27.9873" xml:space="preserve" y="-55.8398" clip-path="url(#clipPath2)" font-family="sans-serif" stroke="none">schema.sch</text>
    </g>
    <g fill="url(#linearGradient6)" text-rendering="geometricPrecision" shape-rendering="geometricPrecision" transform="matrix(1,0,0,1,10,131)" stroke="url(#linearGradient6)">
      <path d="M40 -9 L120 -9 L120 31 L40 31 Z" stroke="none" clip-path="url(#clipPath2)"/>
    </g>
    <g text-rendering="geometricPrecision" stroke-miterlimit="1.45" shape-rendering="geometricPrecision" transform="matrix(1,0,0,1,10,131)" stroke-linecap="butt">
      <path fill="none" d="M40 -9 L120 -9 L120 31 L40 31 Z" clip-path="url(#clipPath2)"/>
      <text x="64.9941" xml:space="preserve" y="15.1602" clip-path="url(#clipPath2)" font-family="sans-serif" stroke="none">XSLT</text>
    </g>
    <g fill="url(#linearGradient7)" text-rendering="geometricPrecision" shape-rendering="geometricPrecision" transform="matrix(1,0,0,1,10,131)" stroke="url(#linearGradient7)">
      <path d="M60 62 L140 62 L140 102 L60 102 Z" stroke="none" clip-path="url(#clipPath2)"/>
    </g>
    <g text-rendering="geometricPrecision" stroke-miterlimit="1.45" shape-rendering="geometricPrecision" transform="matrix(1,0,0,1,10,131)" stroke-linecap="butt">
      <path fill="none" d="M60 62 L140 62 L140 102 L60 102 Z" clip-path="url(#clipPath2)"/>
      <text x="84.9941" xml:space="preserve" y="86.1602" clip-path="url(#clipPath2)" font-family="sans-serif" stroke="none">XSLT</text>
    </g>
    <g fill="url(#linearGradient8)" text-rendering="geometricPrecision" shape-rendering="geometricPrecision" transform="matrix(1,0,0,1,10,131)" stroke="url(#linearGradient8)">
      <path d="M115 133 L195 133 L195 173 L115 173 Z" stroke="none" clip-path="url(#clipPath2)"/>
    </g>
    <g text-rendering="geometricPrecision" stroke-miterlimit="1.45" shape-rendering="geometricPrecision" transform="matrix(1,0,0,1,10,131)" stroke-linecap="butt">
      <path fill="none" d="M115 133 L195 133 L195 173 L115 173 Z" clip-path="url(#clipPath2)"/>
      <text x="139.9941" xml:space="preserve" y="157.1602" clip-path="url(#clipPath2)" font-family="sans-serif" stroke="none">XSLT</text>
    </g>
    <g fill="url(#linearGradient9)" text-rendering="geometricPrecision" shape-rendering="geometricPrecision" transform="matrix(1,0,0,1,10,131)" stroke="url(#linearGradient9)">
      <path d="M150 -9 L230 -9 L230 26 Q210 16 190 26 Q170 36 150 26 Z" stroke="none" clip-path="url(#clipPath2)"/>
    </g>
    <g text-rendering="geometricPrecision" stroke-miterlimit="1.45" shape-rendering="geometricPrecision" transform="matrix(1,0,0,1,10,131)" stroke-linecap="butt">
      <path fill="none" d="M150 -9 L230 -9 L230 26 Q210 16 190 26 Q170 36 150 26 Z" clip-path="url(#clipPath2)"/>
      <text x="161.3154" xml:space="preserve" y="15.1602" clip-path="url(#clipPath2)" font-family="sans-serif" stroke="none">expand.xsl</text>
    </g>
    <g fill="url(#linearGradient10)" text-rendering="geometricPrecision" shape-rendering="geometricPrecision" transform="matrix(1,0,0,1,10,131)" stroke="url(#linearGradient10)">
      <path d="M130 -80 L210 -80 L210 -45 Q190 -55 170 -45 Q150 -35 130 -45 Z" stroke="none" clip-path="url(#clipPath2)"/>
    </g>
    <g text-rendering="geometricPrecision" stroke-miterlimit="1.45" shape-rendering="geometricPrecision" transform="matrix(1,0,0,1,10,131)" stroke-linecap="butt">
      <path fill="none" d="M130 -80 L210 -80 L210 -45 Q190 -55 170 -45 Q150 -35 130 -45 Z" clip-path="url(#clipPath2)"/>
      <text x="141.9863" xml:space="preserve" y="-55.8398" clip-path="url(#clipPath2)" font-family="sans-serif" stroke="none">include.xsl</text>
    </g>
    <g fill="url(#linearGradient11)" text-rendering="geometricPrecision" shape-rendering="geometricPrecision" transform="matrix(1,0,0,1,10,131)" stroke="url(#linearGradient11)">
      <path d="M170 62 L250 62 L250 97 Q230 87 210 97 Q190 107 170 97 Z" stroke="none" clip-path="url(#clipPath2)"/>
    </g>
    <g text-rendering="geometricPrecision" stroke-miterlimit="1.45" shape-rendering="geometricPrecision" transform="matrix(1,0,0,1,10,131)" stroke-linecap="butt">
      <path fill="none" d="M170 62 L250 62 L250 97 Q230 87 210 97 Q190 107 170 97 Z" clip-path="url(#clipPath2)"/>
      <text x="180.3252" xml:space="preserve" y="86.1602" clip-path="url(#clipPath2)" font-family="sans-serif" stroke="none">compile.xsl</text>
    </g>
    <g text-rendering="geometricPrecision" stroke-miterlimit="1.45" shape-rendering="geometricPrecision" transform="matrix(1,0,0,1,10,131)" stroke-linecap="butt">
      <path fill="none" d="M60 -44.9961 L60 -17.0352" clip-path="url(#clipPath2)"/>
      <path d="M60 -9.0352 L65 -21.0352 L60 -18.0352 L55 -21.0352 Z" clip-path="url(#clipPath2)" stroke="none"/>
      <path fill="none" d="M80 31 L80 53.9697" clip-path="url(#clipPath2)"/>
      <path d="M80 61.9697 L85 49.9697 L80 52.9697 L75 49.9697 Z" clip-path="url(#clipPath2)" stroke="none"/>
      <path fill="none" d="M100 102 L100 117.5 L135 117.5 L135 124.9697" clip-path="url(#clipPath2)"/>
      <path d="M135 132.9697 L140 120.9697 L135 123.9697 L130 120.9697 Z" clip-path="url(#clipPath2)" stroke="none"/>
      <path fill="none" d="M155 173 L155 264.9512" clip-path="url(#clipPath2)"/>
      <path d="M155 272.9512 L160 260.9512 L155 263.9512 L150 260.9512 Z" clip-path="url(#clipPath2)" stroke="none"/>
      <path fill="none" d="M190 26.0089 L190 46.5 L120 46.5 L120 53.9697" clip-path="url(#clipPath2)"/>
      <path d="M120 61.9697 L125 49.9697 L120 52.9697 L115 49.9697 Z" clip-path="url(#clipPath2)" stroke="none"/>
      <path fill="none" d="M170 -44.9911 L170 -24.5 L100 -24.5 L100 -17.0303" clip-path="url(#clipPath2)"/>
      <path d="M100 -9.0303 L105 -21.0303 L100 -18.0303 L95 -21.0303 Z" clip-path="url(#clipPath2)" stroke="none"/>
      <path fill="none" d="M210 97.0089 L210 117.5 L175 117.5 L175 124.9697" clip-path="url(#clipPath2)"/>
      <path d="M175 132.9697 L180 120.9697 L175 123.9697 L170 120.9697 Z" clip-path="url(#clipPath2)" stroke="none"/>
    </g>
  </g>
</svg>
